PathFileType	4	(X/Y/Z)	4_coords_data.trc
DataRate	CameraRate	NumFrames	NumMarkers	Units	OrigDataRate	OrigDataStartFrame	OrigNumFrames
30.0	30.0	9	21	m	30.0	30	49
Frame#	Time	THUMB_TIP	THUMB_IP	THUMB_MCP	THUMB_CMC	INDEX_TIP	INDEX_DIP	INDEX_PIP	INDEX_MCP	MIDDLE_TIP	MIDDLE_DIP	MIDDLE_PIP	MIDDLE_MCP	RING_TIP	RING_DIP	RING_PIP	RING_MCP	PINKY_TIP	PINKY_DIP	PINKY_PIP	PINKY_MCP	WRIST
X1	Y1	Z1	X2	Y2	Z2	X3	Y3	Z3	X4	Y4	Z4	X5	Y5	Z5	X6	Y6	Z6	X7	Y7	Z7	X8	Y8	Z8	X9	Y9	Z9	X10	Y10	Z10	X11	Y11	Z11	X12	Y12	Z12	X13	Y13	Z13	X14	Y14	Z14	X15	Y15	Z15	X16	Y16	Z16	X17	Y17	Z17	X18	Y18	Z18	X19	Y19	Z19	X20	Y20	Z20	X21	Y21	Z21
29	0.9666666666666667	0.03879690170288086	-0.044561798095703126	1.02097998046875	0.015778499603271483	-0.038182498931884766	1.03856005859375	0.003895250082015991	-0.029290199279785156	1.0659000244140624	-0.026167800903320312	-0.010958200454711913	1.0745400390625	0.027869400024414064	-0.08185769653320313	0.9974439697265625	0.016230600357055664	-0.08531079864501953	1.0170800170898437	0.002176660060882568	-0.0858323974609375	1.0378299560546875	-0.019801200866699217	-0.07631500244140625	1.0696300048828125	0.011992799758911132	-0.06998570251464843	0.9948350219726563	-0.0035302400588989257	-0.08517040252685547	1.0028499755859375	-0.02387389945983887	-0.09738249969482422	1.0200599975585938	-0.04177069854736328	-0.07712129974365234	1.053010009765625	-0.017466299057006834	-0.07201619720458985	0.987135986328125	-0.033240001678466795	-0.08662809753417969	0.9919860229492188	-0.05267419815063477	-0.09565180206298828	1.0102100219726562	-0.05657529830932617	-0.0658196029663086	1.0373900146484376	-0.044080501556396486	-0.06875900268554687	0.9662130126953125	-0.05686029815673828	-0.06667240142822266	0.98281201171875	-0.06742739868164062	-0.06428520202636719	1.0006300048828125	-0.07045439910888672	-0.04813890075683594	1.0274599609375	-0.0632323989868164	-0.005243639945983886	1.0961099853515626
30	1.0	0.045402099609375	-0.04942779922485351	1.0363699951171874	0.019781000137329103	-0.04135929870605469	1.0485	0.003249650001525879	-0.03334640121459961	1.0736800537109374	-0.027245500564575195	-0.014297800064086914	1.08068994140625	0.02767259979248047	-0.08061920166015625	0.9955399780273437	0.014553000450134277	-0.08442310333251953	1.0146300048828125	-0.0007929769754409791	-0.08548870086669921	1.0348399658203125	-0.02424449920654297	-0.07801799774169922	1.0666300048828126	0.011745699882507324	-0.07447989654541015	0.9849329833984375	-0.005937339782714844	-0.08600140380859375	0.9952449951171874	-0.027642200469970703	-0.09421320343017578	1.013760009765625	-0.04396480178833008	-0.07423040008544922	1.04906005859375	-0.016613000869750975	-0.07097350311279296	0.9750029907226563	-0.03526219940185547	-0.08137480163574219	0.9832020263671875	-0.054870998382568356	-0.086643798828125	1.0026699829101562	-0.05687279891967773	-0.06021379852294922	1.0333499755859374	-0.04396030044555664	-0.05439619827270508	0.96018798828125	-0.056356201171875	-0.053351001739501955	0.9774349975585938	-0.0665447998046875	-0.05217050170898437	0.9959039916992187	-0.06861489868164063	-0.04022529983520508	1.02556005859375	-0.06521269989013671	-0.008463430404663085	1.1013599853515625
31	1.0333333333333334	0.04563750076293945	-0.05819279861450195	1.048030029296875	0.020268699645996095	-0.04638779830932617	1.0568599853515626	0.0007027930021286011	-0.038637699127197264	1.0809000244140625	-0.02947529983520508	-0.01812730026245117	1.086989990234375	0.026505300521850586	-0.08039209747314453	0.99243701171875	0.011992400169372558	-0.08389369964599609	1.0106300048828125	-0.004386940002441406	-0.08525450134277343	1.029949951171875	-0.029035999298095704	-0.07807610321044922	1.0630699462890625	0.010554699897766114	-0.07183499908447266	0.975197998046875	-0.008375579833984376	-0.08017919921875	0.9872039794921875	-0.030587699890136717	-0.08599359893798827	1.0067899780273437	-0.04706639862060547	-0.0691051025390625	1.0451700439453124	-0.015125200271606446	-0.06033409881591797	0.9635029907226562	-0.03464989852905274	-0.06722470092773437	0.9744520263671875	-0.05405429840087891	-0.07119619750976562	0.9944580078125	-0.05709500122070312	-0.051780799865722656	1.0305899658203126	-0.04185630035400391	-0.033379600524902346	0.956864990234375	-0.05356570053100586	-0.03439950180053711	0.9746480102539062	-0.06336660003662109	-0.03556150054931641	0.9933930053710938	-0.06612599945068359	-0.03023859977722168	1.0256099853515626	-0.06807340240478515	-0.011515800476074218	1.1057099609375
32	1.0666666666666667	0.042429798126220705	-0.06593289947509766	1.0577099609375	0.01847450065612793	-0.05082569885253906	1.0640899658203125	-0.0032574501037597654	-0.04380120086669922	1.0873699951171876	-0.032089099884033204	-0.021622400283813476	1.0926500244140624	0.02414620018005371	-0.07728359985351563	0.9881580200195312	0.008915769577026366	-0.07989350128173828	1.0058900146484375	-0.008035639762878417	-0.08062090301513672	1.0253699951171875	-0.034786201477050784	-0.07603140258789062	1.05972998046875	0.008078020095825195	-0.06614910125732422	0.9650040283203125	-0.010940600395202636	-0.0709791030883789	0.979948974609375	-0.032542701721191405	-0.07459629821777344	1.0014000244140624	-0.049301200866699216	-0.062386199951171874	1.041719970703125	-0.01495170021057129	-0.047466300964355466	0.9543980102539062	-0.03392530059814453	-0.05160879898071289	0.9691380004882812	-0.0523926010131836	-0.054788200378417966	0.9907210083007812	-0.056397998809814456	-0.042151298522949215	1.029300048828125	-0.03783209991455078	-0.012534000396728516	0.9582219848632813	-0.04912239837646484	-0.01555799961090088	0.9760479736328125	-0.058978099822998044	-0.018986700057983398	0.9944639892578125	-0.06316279983520508	-0.019569799423217772	1.0263299560546875	-0.07246029663085937	-0.013817700386047363	1.1105799560546874
33	1.1	0.03711330032348633	-0.0737593994140625	1.0648900146484375	0.014736499786376953	-0.05581499862670898	1.070469970703125	-0.008431819915771485	-0.048792701721191406	1.0928399658203125	-0.035306301116943356	-0.024409400939941407	1.09681005859375	0.018867500305175783	-0.07863529968261719	0.9841170043945312	0.003634740114212036	-0.07931159973144532	1.0026300048828125	-0.01304259967803955	-0.07850509643554687	1.0224500122070312	-0.039511199951171874	-0.07274819946289063	1.056780029296875	0.004009850025177002	-0.0595620002746582	0.95885302734375	-0.013936599731445313	-0.06216650009155274	0.9763400268554687	-0.03475080108642578	-0.06416300201416016	0.9990609741210937	-0.05156579971313477	-0.05590919876098633	1.0395699462890624	-0.01572469997406006	-0.03426279830932617	0.950802978515625	-0.03349200057983399	-0.037120399475097654	0.9679669799804688	-0.05115779876708984	-0.040208099365234375	0.9908280029296875	-0.056652000427246094	-0.03374390029907227	1.0303199462890624	-0.0339276008605957	0.004600689888000488	0.9630009765625	-0.045046798706054686	1.2094300473100001e-06	0.9807830200195312	-0.05505440139770508	-0.005064949989318847	0.9988480224609375	-0.060597801208496095	-0.010338600158691407	1.0293800048828126	-0.0769093017578125	-0.014469900131225587	1.114800048828125
34	1.1333333333333333	0.029284299850463866	-0.08165119934082031	1.0693499755859375	0.008846480369567871	-0.06167150115966797	1.0755699462890624	-0.015149900436401367	-0.05382180023193359	1.0963299560546875	-0.03994100189208984	-0.027105199813842774	1.1016600341796876	0.013336199760437012	-0.07819149780273438	0.9828770141601563	-0.001952499985694885	-0.07785970306396485	1.0013400268554689	-0.0183656005859375	-0.07633360290527344	1.0211099853515626	-0.044671600341796874	-0.07005899810791015	1.0553800048828126	0.002641870021820068	-0.05309140014648438	0.958301025390625	-0.014963199615478515	-0.05481380081176758	0.9767360229492188	-0.035892601013183596	-0.05616320037841797	0.9997210083007813	-0.05449190139770508	-0.05055920028686523	1.0395799560546874	-0.01205869960784912	-0.0236781005859375	0.9528040161132812	-0.029591299057006835	-0.02629640007019043	0.9706199951171876	-0.047921100616455076	-0.029581499099731446	0.9934340209960938	-0.057348899841308594	-0.027417200088500977	1.0328599853515625	-0.026883199691772462	0.016620899200439455	0.9707410278320312	-0.03912710189819336	0.011072699546813964	0.9875540161132812	-0.050344799041748045	0.004987750053405762	1.0043300170898437	-0.058511001586914066	-0.003506989955902099	1.0335799560546874	-0.08174909973144531	-0.013935600280761719	1.11897998046875
35	1.1666666666666667	0.020128700256347658	-0.08969149780273437	1.0734300537109376	0.0020275399684906003	-0.06778959655761718	1.079530029296875	-0.022822500228881836	-0.0586781005859375	1.100510009765625	-0.04486709976196289	-0.029657100677490233	1.1059000244140624	0.008476070404052734	-0.07788590240478516	0.9827639770507812	-0.007023079872131348	-0.07667769622802735	1.0013099975585937	-0.02354680061340332	-0.07432730102539062	1.0211099853515626	-0.049486801147460936	-0.06757830047607422	1.054489990234375	0.002175379991531372	-0.04842150115966797	0.959322998046875	-0.01520870018005371	-0.0494104995727539	0.9784429931640625	-0.03630720138549805	-0.0500442008972168	1.0018699951171874	-0.05699860000610352	-0.046015098571777345	1.0404599609375	-0.00858705997467041	-0.016277700424194335	0.9561170043945313	-0.026000999450683595	-0.018496200561523436	0.9744940185546875	-0.04492770004272461	-0.021670600891113282	0.99722802734375	-0.057128101348876956	-0.02228140068054199	1.036300048828125	-0.01951689910888672	0.023953500747680663	0.9789439697265625	-0.03292779922485352	0.018090000152587892	0.9945670166015625	-0.04534170150756836	0.011616100311279296	1.01027001953125	-0.05623239898681641	0.001373890042304992	1.0383800048828125	-0.08634970092773438	-0.013198599815368653	1.121699951171875
36	1.2	0.010473699569702148	-0.09758480072021485	1.0758800048828125	-0.005056940078735352	-0.07393949890136718	1.0824200439453124	-0.02959320068359375	-0.06330429840087891	1.1026800537109376	-0.049615798950195314	-0.032500301361083984	1.1101800537109374	0.0031673600673675526	-0.07819969940185546	0.982573974609375	-0.011963899612426759	-0.07607830047607422	1.0011599731445313	-0.028022600173950196	-0.07292070007324218	1.021280029296875	-0.05336600112915039	-0.065231201171875	1.0543800048828125	0.001007240056991577	-0.04477560043334961	0.9603900146484375	-0.015848899841308595	-0.045180999755859375	0.98060498046875	-0.036714199066162106	-0.045341098785400394	1.00447998046875	-0.0586343994140625	-0.042472400665283204	1.041530029296875	-0.007397729873657227	-0.01047819995880127	0.9589249877929688	-0.02433370018005371	-0.012632399559020997	0.9780770263671875	-0.04325469970703125	-0.01582569980621338	1.0010900268554688	-0.05744329833984375	-0.0185575008392334	1.0395799560546874	-0.01539799976348877	0.02924650001525879	0.9854509887695313	-0.029259099960327148	0.02306879997253418	1.0008699951171875	-0.04216830062866211	0.0163262996673584	1.015989990234375	-0.0547494010925293	0.004838709831237793	1.04297998046875	-0.08964779663085938	-0.012414199829101562	1.124449951171875
37	1.2333333333333334	0.0018091800212860101	-0.10345800018310547	1.07752001953125	-0.011467700004577636	-0.07877369689941406	1.0844300537109375	-0.03592770004272461	-0.06705349731445312	1.1041600341796876	-0.053872600555419925	-0.03508380126953125	1.1121099853515626	-0.0015191400051116938	-0.07747010040283203	0.9820360107421875	-0.016117599487304686	-0.07477829742431641	1.0012000122070313	-0.0314330997467041	-0.0712073974609375	1.0216900024414062	-0.05604940032958984	-0.06333919906616212	1.055030029296875	0.0008698599934577941	-0.04105659866333008	0.9623900146484375	-0.015822699546813965	-0.04150419998168945	0.9831270141601562	-0.036663700103759765	-0.041626300811767575	1.0071900024414062	-0.059659900665283205	-0.039680301666259764	1.04343994140625	-0.004574419975280762	-0.005851930141448975	0.9629249877929688	-0.02145280075073242	-0.00811238956451416	0.9824439697265624	-0.04077360153198242	-0.0114753999710083	1.0051799926757812	-0.05739609909057617	-0.015727000236511232	1.0429599609375	-0.011099100112915039	0.033014801025390624	0.9920869750976562	-0.025427099227905273	0.026628299713134764	1.0069000244140625	-0.0390447998046875	0.019662300109863282	1.02147998046875	-0.053376598358154295	0.007024199962615967	1.0474000244140624	-0.09229429626464844	-0.012026000022888183	1.1266199951171876
